<svg width="13" height="13" viewBox="0 0 13 13" fill="none" xmlns="http://www.w3.org/2000/svg">
<g clip-path="url(#clip0_118_9)">
<path d="M4.79624 10.1254C2.13166 10.9248 2.13166 8.79313 1.06583 8.52667M8.52666 11.7242V9.66179C8.54665 9.40767 8.51232 9.15221 8.42595 8.9124C8.33957 8.67258 8.20314 8.45389 8.02572 8.27088C9.69908 8.08435 11.4577 7.45018 11.4577 4.54046C11.4576 3.79641 11.1714 3.08091 10.6583 2.54202C10.9013 1.89107 10.8841 1.17155 10.6104 0.532925C10.6104 0.532925 9.98152 0.346404 8.52666 1.32164C7.30522 0.990605 6.01768 0.990605 4.79624 1.32164C3.34138 0.346404 2.71254 0.532925 2.71254 0.532925C2.43882 1.17155 2.42164 1.89107 2.66458 2.54202C2.14771 3.0849 1.86122 3.80688 1.8652 4.55645C1.8652 7.44485 3.62383 8.07903 5.29718 8.28686C5.12185 8.46804 4.98663 8.6841 4.90033 8.92099C4.81402 9.15788 4.77855 9.41029 4.79624 9.66179V11.7242" stroke="black" stroke-linecap="round" stroke-linejoin="round"/>
</g>
<defs>
<clipPath id="clip0_118_9">
<rect width="12.79" height="12.79" fill="white"/>
</clipPath>
</defs>
</svg>
