<svg width="125" height="10" viewBox="0 0 125 10" fill="none" xmlns="http://www.w3.org/2000/svg">
<path d="M5.31915 4.64191C5.31915 2.43277 7.11001 0.641907 9.31915 0.641907H120.574C122.784 0.641907 124.574 2.43277 124.574 4.64191V5.0107C124.574 7.21984 122.784 9.0107 120.574 9.0107H9.31915C7.11001 9.0107 5.31915 7.21984 5.31915 5.0107V4.64191Z" fill="#D9D9D9"/>
<path d="M0.0886536 4.64191C0.0886536 2.43277 1.87951 0.641907 4.08865 0.641907H55.7163C57.9255 0.641907 59.7163 2.43277 59.7163 4.64191V5.0107C59.7163 7.21984 57.9255 9.0107 55.7163 9.0107H4.08865C1.87951 9.0107 0.0886536 7.21984 0.0886536 5.0107V4.64191Z" fill="#686868"/>
</svg>
